<svg xmlns="http://www.w3.org/2000/svg" viewBox="0 0 1200 2800" font-family="'Helvetica Neue', Arial, sans-serif">
  <defs>
    <linearGradient id="bgGrad" x1="0" y1="0" x2="0" y2="1">
      <stop offset="0%" stop-color="#fffcf5"/>
      <stop offset="100%" stop-color="#f5efe5"/>
    </linearGradient>
    <linearGradient id="honeyGrad" x1="0" y1="0" x2="1" y2="1">
      <stop offset="0%" stop-color="#f5c542"/>
      <stop offset="100%" stop-color="#e8926e"/>
    </linearGradient>
    <linearGradient id="sageGrad" x1="0" y1="0" x2="1" y2="1">
      <stop offset="0%" stop-color="#8cb88a"/>
      <stop offset="100%" stop-color="#6fa06d"/>
    </linearGradient>
    <linearGradient id="skyGrad" x1="0" y1="0" x2="1" y2="1">
      <stop offset="0%" stop-color="#85bdd9"/>
      <stop offset="100%" stop-color="#6a9fc0"/>
    </linearGradient>
    <linearGradient id="lavGrad" x1="0" y1="0" x2="1" y2="1">
      <stop offset="0%" stop-color="#b8a9d8"/>
      <stop offset="100%" stop-color="#9a8bc0"/>
    </linearGradient>
    <linearGradient id="coralGrad" x1="0" y1="0" x2="1" y2="1">
      <stop offset="0%" stop-color="#f2988e"/>
      <stop offset="100%" stop-color="#e06b6b"/>
    </linearGradient>
    <linearGradient id="tealGrad" x1="0" y1="0" x2="1" y2="1">
      <stop offset="0%" stop-color="#5ba8a0"/>
      <stop offset="100%" stop-color="#7dc4bc"/>
    </linearGradient>
    <filter id="shadow">
      <feDropShadow dx="0" dy="2" stdDeviation="4" flood-color="#00000012"/>
    </filter>
    <filter id="shadowDeep">
      <feDropShadow dx="0" dy="4" stdDeviation="8" flood-color="#00000018"/>
    </filter>
  </defs>

  <rect width="1200" height="2800" fill="url(#bgGrad)"/>

  <!-- ===== TITLE ===== -->
  <rect x="100" y="25" width="1000" height="100" rx="20" fill="url(#honeyGrad)" filter="url(#shadowDeep)"/>
  <text x="600" y="65" text-anchor="middle" fill="#fff" font-size="24" font-weight="900">📅 きいちゃん 3ヶ月ロードマップ</text>
  <text x="600" y="95" text-anchor="middle" fill="#fff" font-size="13" font-weight="600" opacity="0.9">4/17（金）→ 7月末 ｜ コンサル期間 5月〜7月 ｜ 0期1講義スタートが目標</text>

  <!-- ===== PHASE LABELS (left side timeline) ===== -->
  <line x1="60" y1="160" x2="60" y2="2700" stroke="#d4a017" stroke-width="2" stroke-dasharray="6,4"/>

  <!-- ===== PHASE 0: 設計フェーズ (4/17 - 4/30) ===== -->
  <circle cx="60" cy="180" r="14" fill="url(#sageGrad)"/>
  <text x="60" y="185" text-anchor="middle" fill="#fff" font-size="9" font-weight="900">0</text>

  <rect x="100" y="155" width="1000" height="50" rx="14" fill="url(#sageGrad)" filter="url(#shadow)"/>
  <text x="130" y="185" fill="#fff" font-size="16" font-weight="900">Phase 0 ：設計フェーズ（4/17〜4/30）— 発信より先に全部設計する</text>

  <!-- Week: 4/17-4/20 -->
  <rect x="120" y="220" width="960" height="175" rx="14" fill="#fff" stroke="#8cb88a" stroke-width="1.5" filter="url(#shadow)"/>
  <rect x="120" y="220" width="960" height="30" rx="14" fill="#8cb88a" opacity="0.15"/>
  <text x="145" y="242" fill="#6fa06d" font-size="12" font-weight="900">📆 4/17（金）〜 4/20（日）</text>
  <text x="850" y="242" fill="#999" font-size="10" font-weight="600">Week 1前半</text>

  <text x="145" y="270" fill="#4a3a2a" font-size="11" font-weight="700">4/17（金）コンサルセッション</text>
  <text x="310" y="270" fill="#777" font-size="10">ファネル全体図の確認 / モニター価格＆人数の決定 / 「先生」表記の決定</text>

  <text x="145" y="293" fill="#4a3a2a" font-size="11" font-weight="700">4/18（土）</text>
  <text x="230" y="293" fill="#777" font-size="10">特典動画の台本作成（迷走神経パート含む）/ 0期説明資料の骨子作成</text>

  <text x="145" y="316" fill="#4a3a2a" font-size="11" font-weight="700">4/19（日）</text>
  <text x="230" y="316" fill="#777" font-size="10">特典動画撮影（自宅可・スマホOK）/ チェックシート最終調整</text>

  <text x="145" y="339" fill="#4a3a2a" font-size="11" font-weight="700">4/20（日）</text>
  <text x="230" y="339" fill="#777" font-size="10">特典動画の編集 / LINE公式アカウントの設定＆自動応答設計</text>

  <rect x="145" y="355" width="300" height="25" rx="6" fill="#eef6ee" stroke="#8cb88a" stroke-width="1"/>
  <text x="160" y="372" fill="#6fa06d" font-size="9" font-weight="700">✅ 成果物：特典動画 / LINE設定 / 台本</text>

  <!-- Week: 4/21-4/27 -->
  <rect x="120" y="410" width="960" height="175" rx="14" fill="#fff" stroke="#8cb88a" stroke-width="1.5" filter="url(#shadow)"/>
  <rect x="120" y="410" width="960" height="30" rx="14" fill="#8cb88a" opacity="0.15"/>
  <text x="145" y="432" fill="#6fa06d" font-size="12" font-weight="900">📆 4/21（月）〜 4/27（日）</text>
  <text x="850" y="432" fill="#999" font-size="10" font-weight="600">Week 1後半</text>

  <text x="145" y="460" fill="#4a3a2a" font-size="11" font-weight="700">4/21-22</text>
  <text x="230" y="460" fill="#777" font-size="10">診断チャットLP最終版＋Vercelデプロイ / LINE特典動画の配信テスト</text>

  <text x="145" y="483" fill="#4a3a2a" font-size="11" font-weight="700">4/23-24</text>
  <text x="230" y="483" fill="#777" font-size="10">0期説明資料の作成（カリキュラム概要・価格・スケジュール）</text>

  <text x="145" y="506" fill="#4a3a2a" font-size="11" font-weight="700">4/25（金）コンサルセッション</text>
  <text x="370" y="506" fill="#777" font-size="10">0期説明資料レビュー / LP＆LINE導線の最終確認</text>

  <text x="145" y="529" fill="#4a3a2a" font-size="11" font-weight="700">4/26-27</text>
  <text x="230" y="529" fill="#777" font-size="10">フィードバック反映 / モニター募集文面の作成</text>

  <rect x="145" y="548" width="340" height="25" rx="6" fill="#eef6ee" stroke="#8cb88a" stroke-width="1"/>
  <text x="160" y="565" fill="#6fa06d" font-size="9" font-weight="700">✅ 成果物：LP公開 / 0期資料 / LINE完成 / 導線テスト完了</text>

  <!-- Week: 4/28-5/4 -->  
  <rect x="120" y="600" width="960" height="140" rx="14" fill="#fff" stroke="#8cb88a" stroke-width="1.5" filter="url(#shadow)"/>
  <rect x="120" y="600" width="960" height="30" rx="14" fill="#8cb88a" opacity="0.15"/>
  <text x="145" y="622" fill="#6fa06d" font-size="12" font-weight="900">📆 4/28（月）〜 5/4（日）</text>
  <text x="850" y="622" fill="#999" font-size="10" font-weight="600">GW ＝ 閉店＆テスト期間</text>

  <text x="145" y="650" fill="#4a3a2a" font-size="11" font-weight="700">GW中</text>
  <text x="210" y="650" fill="#777" font-size="10">身近な知人2-3名にLP→LINE→チェックシートの導線テスト（友人モニター）</text>

  <text x="145" y="673" fill="#4a3a2a" font-size="11" font-weight="700">微調整</text>
  <text x="210" y="673" fill="#777" font-size="10">フィードバックに基づく文言・導線の微調整</text>

  <rect x="145" y="695" width="420" height="25" rx="6" fill="#eef6ee" stroke="#8cb88a" stroke-width="1"/>
  <text x="160" y="712" fill="#6fa06d" font-size="9" font-weight="700">✅ 成果物：導線テスト完了 / 改善反映 / 全ツール稼働確認済み</text>

  <rect x="140" y="750" width="940" height="32" rx="8" fill="#d4f0d0" stroke="#8cb88a" stroke-width="1.5"/>
  <text x="600" y="771" text-anchor="middle" fill="#4a3a2a" font-size="12" font-weight="900">🎯 Phase 0 完了条件：診断チャット → LINE → 特典 → セッション予約 の導線が全て稼働</text>

  <!-- ===== PHASE 1: モニターセッション (5月) ===== -->
  <circle cx="60" cy="820" r="14" fill="url(#skyGrad)"/>
  <text x="60" y="825" text-anchor="middle" fill="#fff" font-size="9" font-weight="900">1</text>

  <rect x="100" y="800" width="1000" height="50" rx="14" fill="url(#skyGrad)" filter="url(#shadow)"/>
  <text x="130" y="830" fill="#fff" font-size="16" font-weight="900">Phase 1 ：閉店集客 ＋ モニターセッション（5月）— コンサル1ヶ月目</text>

  <!-- Week: 5/5-5/11 -->
  <rect x="120" y="865" width="960" height="140" rx="14" fill="#fff" stroke="#6a9fc0" stroke-width="1.5" filter="url(#shadow)"/>
  <rect x="120" y="865" width="960" height="30" rx="14" fill="#85bdd9" opacity="0.15"/>
  <text x="145" y="887" fill="#6a9fc0" font-size="12" font-weight="900">📆 5/5（月）〜 5/11（日）</text>
  <text x="850" y="887" fill="#999" font-size="10" font-weight="600">コンサル開始</text>

  <text x="145" y="915" fill="#4a3a2a" font-size="11" font-weight="700">コンサル1回目</text>
  <text x="280" y="915" fill="#777" font-size="10">全ツール最終確認 / 閉店集客戦略の確認 / モニター募集開始</text>

  <text x="145" y="938" fill="#4a3a2a" font-size="11" font-weight="700">閉店集客</text>
  <text x="240" y="938" fill="#777" font-size="10">既存のInstagram・知人紹介で診断チャットを回す（SNS発信はまだしない）</text>

  <text x="145" y="961" fill="#4a3a2a" font-size="11" font-weight="700">LP拡散</text>
  <text x="220" y="961" fill="#777" font-size="10">LINE友だち・既存フォロワーに診断チャットURLを案内</text>

  <rect x="145" y="975" width="340" height="20" rx="6" fill="#edf5fa" stroke="#85bdd9" stroke-width="1"/>
  <text x="160" y="989" fill="#6a9fc0" font-size="9" font-weight="700">🎯 目標：モニター3-5名の申込み獲得</text>

  <!-- Week: 5/12-5/25 -->
  <rect x="120" y="1020" width="960" height="130" rx="14" fill="#fff" stroke="#6a9fc0" stroke-width="1.5" filter="url(#shadow)"/>
  <rect x="120" y="1020" width="960" height="30" rx="14" fill="#85bdd9" opacity="0.15"/>
  <text x="145" y="1042" fill="#6a9fc0" font-size="12" font-weight="900">📆 5/12（月）〜 5/25（日）</text>
  <text x="850" y="1042" fill="#999" font-size="10" font-weight="600">モニターセッション実施期間</text>

  <text x="145" y="1070" fill="#4a3a2a" font-size="11" font-weight="700">個別セッション</text>
  <text x="280" y="1070" fill="#777" font-size="10">モニター3-5名の個別セッション実施（1名60-90分）</text>

  <text x="145" y="1093" fill="#4a3a2a" font-size="11" font-weight="700">事例収集</text>
  <text x="240" y="1093" fill="#777" font-size="10">セッション後アンケート / ビフォーアフター記録 / お客様の声の取得</text>

  <text x="145" y="1116" fill="#4a3a2a" font-size="11" font-weight="700">振り返り</text>
  <text x="240" y="1116" fill="#777" font-size="10">セッション内容のパターン分析 → 0期カリキュラムに反映</text>

  <rect x="145" y="1128" width="340" height="20" rx="6" fill="#edf5fa" stroke="#85bdd9" stroke-width="1"/>
  <text x="160" y="1142" fill="#6a9fc0" font-size="9" font-weight="700">✅ 成果物：事例3-5件 / お客様の声 / パターン分析</text>

  <!-- Week: 5/26-6/1 -->
  <rect x="120" y="1165" width="960" height="130" rx="14" fill="#fff" stroke="#6a9fc0" stroke-width="1.5" filter="url(#shadow)"/>
  <rect x="120" y="1165" width="960" height="30" rx="14" fill="#85bdd9" opacity="0.15"/>
  <text x="145" y="1187" fill="#6a9fc0" font-size="12" font-weight="900">📆 5/26（月）〜 6/1（日）</text>
  <text x="850" y="1187" fill="#999" font-size="10" font-weight="600">0期お誘い＆SNS設計</text>

  <text x="145" y="1215" fill="#4a3a2a" font-size="11" font-weight="700">0期お誘い</text>
  <text x="250" y="1215" fill="#777" font-size="10">モニター参加者に0期の案内 → 興味ありの方を0期メンバーに確定</text>

  <text x="145" y="1238" fill="#4a3a2a" font-size="11" font-weight="700">YouTube設計</text>
  <text x="270" y="1238" fill="#777" font-size="10">チャンネルリブランディング設計 / サムネ・タイトル戦略策定</text>

  <text x="145" y="1261" fill="#4a3a2a" font-size="11" font-weight="700">0期カリキュラム</text>
  <text x="295" y="1261" fill="#777" font-size="10">事例に基づいたカリキュラム最終版の作成</text>

  <rect x="140" y="1310" width="940" height="32" rx="8" fill="#d0e8f5" stroke="#85bdd9" stroke-width="1.5"/>
  <text x="600" y="1331" text-anchor="middle" fill="#4a3a2a" font-size="12" font-weight="900">🎯 Phase 1 完了条件：モニター事例取得 / 0期メンバー確定 / SNS設計完了</text>

  <!-- ===== PHASE 2: SNS整備 + 0期準備 (6月) ===== -->
  <circle cx="60" cy="1385" r="14" fill="url(#lavGrad)"/>
  <text x="60" y="1390" text-anchor="middle" fill="#fff" font-size="9" font-weight="900">2</text>

  <rect x="100" y="1365" width="1000" height="50" rx="14" fill="url(#lavGrad)" filter="url(#shadow)"/>
  <text x="130" y="1395" fill="#fff" font-size="16" font-weight="900">Phase 2 ：SNS整備 ＋ 0期準備（6月）— コンサル2ヶ月目</text>

  <!-- YouTube rebrand -->
  <rect x="120" y="1430" width="960" height="190" rx="14" fill="#fff" stroke="#9a8bc0" stroke-width="1.5" filter="url(#shadow)"/>
  <rect x="120" y="1430" width="960" height="30" rx="14" fill="#b8a9d8" opacity="0.15"/>
  <text x="145" y="1452" fill="#9a8bc0" font-size="12" font-weight="900">📆 6/2（月）〜 6/15（日）</text>
  <text x="850" y="1452" fill="#999" font-size="10" font-weight="600">YouTubeリブランディング</text>

  <text x="145" y="1480" fill="#4a3a2a" font-size="11" font-weight="700">チャンネル刷新</text>
  <text x="280" y="1480" fill="#777" font-size="10">チャンネル名変更 / バナー・アイコン刷新 / 概要文の書き直し</text>

  <rect x="145" y="1495" width="910" height="40" rx="8" fill="#f3f0fa" stroke="#b8a9d8" stroke-width="1"/>
  <text x="165" y="1512" fill="#9a8bc0" font-size="10" font-weight="700">旧：「伊藤きみこのペットフード研究ラボ」</text>
  <text x="165" y="1528" fill="#d4a017" font-size="10" font-weight="900">新：「きいちゃん｜愛犬は飼い主の鏡🌻管理栄養士×飼い主マインド」（仮）</text>

  <text x="145" y="1555" fill="#4a3a2a" font-size="11" font-weight="700">YouTube 1本目収録</text>
  <text x="310" y="1555" fill="#777" font-size="10">TTP動画（栄養系入口）：「管理栄養士が告白。フードを変えても犬が食べない本当の原因」</text>

  <text x="145" y="1578" fill="#4a3a2a" font-size="11" font-weight="700">YouTube 2本目収録</text>
  <text x="310" y="1578" fill="#777" font-size="10">マインド系：「やってはいけない！こじらせ飼い主の口グセ3選」</text>

  <text x="145" y="1601" fill="#4a3a2a" font-size="11" font-weight="700">Instagram整理</text>
  <text x="275" y="1601" fill="#777" font-size="10">プロフィール刷新 / ハイライト整理 / 診断チャットへのリンク設置</text>

  <!-- 0期準備 -->
  <rect x="120" y="1635" width="960" height="140" rx="14" fill="#fff" stroke="#9a8bc0" stroke-width="1.5" filter="url(#shadow)"/>
  <rect x="120" y="1635" width="960" height="30" rx="14" fill="#b8a9d8" opacity="0.15"/>
  <text x="145" y="1657" fill="#9a8bc0" font-size="12" font-weight="900">📆 6/16（月）〜 6/29（日）</text>
  <text x="850" y="1657" fill="#999" font-size="10" font-weight="600">0期最終準備＋発信開始</text>

  <text x="145" y="1685" fill="#4a3a2a" font-size="11" font-weight="700">0期カリキュラム完成</text>
  <text x="320" y="1685" fill="#777" font-size="10">全講義の構成 / 教材作成 / スケジュール確定</text>

  <text x="145" y="1708" fill="#4a3a2a" font-size="11" font-weight="700">YouTube公開開始</text>
  <text x="300" y="1708" fill="#777" font-size="10">TTP動画1-2本を公開 / 概要欄に診断チャットのリンク設置</text>

  <text x="145" y="1731" fill="#4a3a2a" font-size="11" font-weight="700">SNS発信開始</text>
  <text x="275" y="1731" fill="#777" font-size="10">Instagram / YouTube shorts / 診断チャットへの誘導コンテンツ</text>

  <rect x="145" y="1748" width="340" height="20" rx="6" fill="#f3f0fa" stroke="#b8a9d8" stroke-width="1"/>
  <text x="160" y="1762" fill="#9a8bc0" font-size="9" font-weight="700">🎯 目標：YouTube 2-3本公開 / INS整備済み / 0期教材完成</text>

  <rect x="140" y="1785" width="940" height="32" rx="8" fill="#e8e0f5" stroke="#b8a9d8" stroke-width="1.5"/>
  <text x="600" y="1806" text-anchor="middle" fill="#4a3a2a" font-size="12" font-weight="900">🎯 Phase 2 完了条件：YouTube＆SNSリブランド完了 / 0期カリキュラム＆教材完成 / 発信開始</text>

  <!-- ===== PHASE 3: 0期スタート (7月) ===== -->
  <circle cx="60" cy="1860" r="14" fill="url(#coralGrad)"/>
  <text x="60" y="1865" text-anchor="middle" fill="#fff" font-size="9" font-weight="900">3</text>

  <rect x="100" y="1840" width="1000" height="50" rx="14" fill="url(#coralGrad)" filter="url(#shadow)"/>
  <text x="130" y="1870" fill="#fff" font-size="16" font-weight="900">Phase 3 ：0期スタート ＋ 継続集客（7月）— コンサル3ヶ月目 🎓</text>

  <!-- 7月前半 -->
  <rect x="120" y="1905" width="960" height="140" rx="14" fill="#fff" stroke="#e06b6b" stroke-width="1.5" filter="url(#shadow)"/>
  <rect x="120" y="1905" width="960" height="30" rx="14" fill="#f2988e" opacity="0.15"/>
  <text x="145" y="1927" fill="#e06b6b" font-size="12" font-weight="900">📆 7/1（火）〜 7/13（日）</text>
  <text x="850" y="1927" fill="#999" font-size="10" font-weight="600">🎓 0期 第1講義スタート！</text>

  <text x="145" y="1955" fill="#4a3a2a" font-size="11" font-weight="700">0期 第1講義</text>
  <text x="260" y="1955" fill="#d4a017" font-size="11" font-weight="900">こじらせ飼い主マインド講座 0期 スタート！🎉</text>

  <text x="145" y="1978" fill="#4a3a2a" font-size="11" font-weight="700">コンテンツ拡大</text>
  <text x="280" y="1978" fill="#777" font-size="10">YouTube定期投稿開始（月2本ペース）/ 診断チャット経由の新規LINE登録を維持</text>

  <text x="145" y="2001" fill="#4a3a2a" font-size="11" font-weight="700">モニター2期検討</text>
  <text x="300" y="2001" fill="#777" font-size="10">0期の反応を見ながら、次のモニター or 1期の設計を検討</text>

  <rect x="145" y="2018" width="340" height="20" rx="6" fill="#fef0f0" stroke="#f2988e" stroke-width="1"/>
  <text x="160" y="2032" fill="#e06b6b" font-size="9" font-weight="700">🎯 目標：0期1講義実施 / YouTube月2本 / 継続LINE登録</text>

  <!-- 7月後半 -->
  <rect x="120" y="2055" width="960" height="120" rx="14" fill="#fff" stroke="#e06b6b" stroke-width="1.5" filter="url(#shadow)"/>
  <rect x="120" y="2055" width="960" height="30" rx="14" fill="#f2988e" opacity="0.15"/>
  <text x="145" y="2077" fill="#e06b6b" font-size="12" font-weight="900">📆 7/14（月）〜 7/31（木）</text>
  <text x="850" y="2077" fill="#999" font-size="10" font-weight="600">0期継続＋振り返り</text>

  <text x="145" y="2105" fill="#4a3a2a" font-size="11" font-weight="700">0期 継続講義</text>
  <text x="280" y="2105" fill="#777" font-size="10">受講生サポート / 次回講義の実施 / フィードバック収集</text>

  <text x="145" y="2128" fill="#4a3a2a" font-size="11" font-weight="700">コンサル振り返り</text>
  <text x="300" y="2128" fill="#777" font-size="10">3ヶ月の成果を整理 / 1期に向けた改善点 / 自走体制の確認</text>

  <text x="145" y="2151" fill="#4a3a2a" font-size="11" font-weight="700">1期戦略策定</text>
  <text x="275" y="2151" fill="#777" font-size="10">0期の事例ベースでLP作成準備 / 価格設定 / 集客戦略</text>

  <rect x="140" y="2195" width="940" height="32" rx="8" fill="#fde0e0" stroke="#e06b6b" stroke-width="1.5"/>
  <text x="600" y="2216" text-anchor="middle" fill="#4a3a2a" font-size="12" font-weight="900">🎯 Phase 3 完了条件：0期1講義以上実施 / YouTube発信中 / 1期の設計着手</text>

  <!-- ===== SUMMARY SECTION ===== -->
  <rect x="100" y="2270" width="1000" height="480" rx="18" fill="#fff" stroke="#d4a017" stroke-width="2" filter="url(#shadowDeep)"/>
  <rect x="100" y="2270" width="1000" height="42" rx="18" fill="url(#honeyGrad)"/>
  <rect x="100" y="2294" width="1000" height="18" fill="url(#honeyGrad)"/>
  <text x="600" y="2298" text-anchor="middle" fill="#fff" font-size="16" font-weight="900">📋 フェーズ別の戦略方針</text>

  <!-- Strategy boxes -->
  <rect x="130" y="2325" width="460" height="100" rx="12" fill="#eef6ee" stroke="#8cb88a" stroke-width="1"/>
  <text x="155" y="2348" fill="#6fa06d" font-size="12" font-weight="900">🔧 Phase 0（4月）設計</text>
  <text x="155" y="2370" fill="#4a3a2a" font-size="10">• 発信は一切しない。全ツールの設計＆構築に集中</text>
  <text x="155" y="2388" fill="#4a3a2a" font-size="10">• 導線テスト：診断→LINE→特典→セッション予約</text>
  <text x="155" y="2406" fill="#4a3a2a" font-size="10">• 0期の説明資料を完成させる</text>

  <rect x="610" y="2325" width="460" height="100" rx="12" fill="#edf5fa" stroke="#85bdd9" stroke-width="1"/>
  <text x="635" y="2348" fill="#6a9fc0" font-size="12" font-weight="900">🎯 Phase 1（5月）閉店集客</text>
  <text x="635" y="2370" fill="#4a3a2a" font-size="10">• 既存フォロワー＆知人紹介でモニター集め</text>
  <text x="635" y="2388" fill="#4a3a2a" font-size="10">• SNS発信はまだしない。閉店で本気の人だけ集める</text>
  <text x="635" y="2406" fill="#4a3a2a" font-size="10">• 事例収集 → 0期カリキュラムに反映</text>

  <rect x="130" y="2440" width="460" height="100" rx="12" fill="#f3f0fa" stroke="#b8a9d8" stroke-width="1"/>
  <text x="155" y="2463" fill="#9a8bc0" font-size="12" font-weight="900">📺 Phase 2（6月）SNS整備</text>
  <text x="155" y="2485" fill="#4a3a2a" font-size="10">• YouTubeチャンネルリブランディング</text>
  <text x="155" y="2503" fill="#4a3a2a" font-size="10">• TTP動画2-3本を収録＆公開</text>
  <text x="155" y="2521" fill="#4a3a2a" font-size="10">• 事例ベースのコンテンツ発信開始</text>

  <rect x="610" y="2440" width="460" height="100" rx="12" fill="#fef0f0" stroke="#f2988e" stroke-width="1"/>
  <text x="635" y="2463" fill="#e06b6b" font-size="12" font-weight="900">🎓 Phase 3（7月）0期スタート</text>
  <text x="635" y="2485" fill="#4a3a2a" font-size="10">• 0期第1講義実施 → 事例＆声を蓄積</text>
  <text x="635" y="2503" fill="#4a3a2a" font-size="10">• YouTube定期投稿（月2本）で認知拡大</text>
  <text x="635" y="2521" fill="#4a3a2a" font-size="10">• 1期に向けた設計を着手</text>

  <!-- Key principle -->
  <rect x="130" y="2560" width="940" height="65" rx="12" fill="url(#honeyGrad)" opacity="0.12"/>
  <text x="600" y="2585" text-anchor="middle" fill="#d4a017" font-size="13" font-weight="900">💡 大原則：「設計してから発信」 —  いきなり発信しない。全部整ってから出す。</text>
  <text x="600" y="2608" text-anchor="middle" fill="#777" font-size="11">4月＝設計 → 5月＝閉店集客＆事例収集 → 6月＝SNS整備＆発信開始 → 7月＝0期スタート</text>

  <!-- YouTube rebrand note -->
  <rect x="130" y="2640" width="940" height="85" rx="12" fill="#fff" stroke="#d4a017" stroke-width="1"/>
  <text x="155" y="2665" fill="#d4a017" font-size="12" font-weight="900">📺 YouTubeチャンネル リブランディング案</text>
  <text x="155" y="2690" fill="#999" font-size="10" text-decoration="line-through">旧：「伊藤きみこのペットフード研究ラボ・犬が健康で長生きする食事と栄養の秘訣」</text>
  <text x="155" y="2710" fill="#4a3a2a" font-size="11" font-weight="700">新：「きいちゃん🌻管理栄養士が教える 愛犬は飼い主の鏡」（仮）</text>
</svg>
